<svg width="96" height="96" viewBox="0 0 96 96" fill="none" xmlns="http://www.w3.org/2000/svg">
<g clip-path="url(#clip0_50_71)">
<mask id="path-1-outside-1_50_71" maskUnits="userSpaceOnUse" x="13.3203" y="18.5059" width="49" height="62" fill="black">
<rect fill="white" x="13.3203" y="18.5059" width="49" height="62"/>
<path d="M27.68 79.5059H14.5575V19.5637H37.7244C52.3049 19.5637 60.5672 26.611 60.5672 39.0044C60.5672 46.7807 57.2461 52.2889 50.6038 55.691L61.1342 79.5059H46.7967L37.8054 58.5261H27.68V79.5059ZM27.68 31.2281V47.0237H37.6434C43.3946 47.0237 46.7157 44.1076 46.7157 39.0044C46.7157 33.9822 43.5566 31.2281 37.7244 31.2281H27.68Z"/>
</mask>
<path d="M27.68 79.5059H14.5575V19.5637H37.7244C52.3049 19.5637 60.5672 26.611 60.5672 39.0044C60.5672 46.7807 57.2461 52.2889 50.6038 55.691L61.1342 79.5059H46.7967L37.8054 58.5261H27.68V79.5059ZM27.68 31.2281V47.0237H37.6434C43.3946 47.0237 46.7157 44.1076 46.7157 39.0044C46.7157 33.9822 43.5566 31.2281 37.7244 31.2281H27.68Z" fill="white"/>
<path d="M27.68 79.5059V80.0819H28.256V79.5059H27.68ZM14.5575 79.5059H13.9815V80.0819H14.5575V79.5059ZM14.5575 19.5637V18.9877H13.9815V19.5637H14.5575ZM50.6038 55.691L50.3413 55.1783L49.857 55.4264L50.077 55.9239L50.6038 55.691ZM61.1342 79.5059V80.0819H62.0187L61.661 79.2729L61.1342 79.5059ZM46.7967 79.5059L46.2673 79.7328L46.4169 80.0819H46.7967V79.5059ZM37.8054 58.5261L38.3348 58.2992L38.1852 57.9501H37.8054V58.5261ZM27.68 58.5261V57.9501H27.104V58.5261H27.68ZM27.68 31.2281V30.6521H27.104V31.2281H27.68ZM27.68 47.0237H27.104V47.5997H27.68V47.0237ZM27.68 79.5059V78.9299H14.5575V79.5059V80.0819H27.68V79.5059ZM14.5575 79.5059H15.1335V19.5637H14.5575H13.9815V79.5059H14.5575ZM14.5575 19.5637V20.1397H37.7244V19.5637V18.9877H14.5575V19.5637ZM37.7244 19.5637V20.1397C44.9299 20.1397 50.4899 21.8816 54.24 25.075C57.9765 28.2568 59.9912 32.9434 59.9912 39.0044H60.5672H61.1432C61.1432 32.6719 59.0268 27.6382 54.9869 24.198C50.9608 20.7695 45.0993 18.9877 37.7244 18.9877V19.5637ZM60.5672 39.0044H59.9912C59.9912 42.8092 59.1794 46.0236 57.5821 48.6922C55.9855 51.3597 53.5823 53.5183 50.3413 55.1783L50.6038 55.691L50.8664 56.2037C54.2676 54.4616 56.8461 52.165 58.5706 49.2838C60.2944 46.4037 61.1432 42.9759 61.1432 39.0044H60.5672ZM50.6038 55.691L50.077 55.9239L60.6074 79.7388L61.1342 79.5059L61.661 79.2729L51.1306 55.4581L50.6038 55.691ZM61.1342 79.5059V78.9299H46.7967V79.5059V80.0819H61.1342V79.5059ZM46.7967 79.5059L47.3261 79.279L38.3348 58.2992L37.8054 58.5261L37.2759 58.753L46.2673 79.7328L46.7967 79.5059ZM37.8054 58.5261V57.9501H27.68V58.5261V59.1021H37.8054V58.5261ZM27.68 58.5261H27.104V79.5059H27.68H28.256V58.5261H27.68ZM27.68 31.2281H27.104V47.0237H27.68H28.256V31.2281H27.68ZM27.68 47.0237V47.5997H37.6434V47.0237V46.4477H27.68V47.0237ZM37.6434 47.0237V47.5997C40.6099 47.5997 43.031 46.8476 44.7173 45.3596C46.4141 43.8625 47.2917 41.6868 47.2917 39.0044H46.7157H46.1397C46.1397 41.4252 45.3567 43.2592 43.9551 44.4958C42.5432 45.7417 40.4281 46.4477 37.6434 46.4477V47.0237ZM46.7157 39.0044H47.2917C47.2917 36.3675 46.4575 34.2478 44.7844 32.7977C43.1245 31.3592 40.722 30.6521 37.7244 30.6521V31.2281V31.8041C40.5589 31.8041 42.6521 32.4741 44.0299 33.6682C45.3943 34.8507 46.1397 36.6191 46.1397 39.0044H46.7157ZM37.7244 31.2281V30.6521H27.68V31.2281V31.8041H37.7244V31.2281Z" fill="black" mask="url(#path-1-outside-1_50_71)"/>
<mask id="path-3-outside-2_50_71" maskUnits="userSpaceOnUse" x="66.3223" y="64.5059" width="17" height="17" fill="black">
<rect fill="white" x="66.3223" y="64.5059" width="17" height="17"/>
<path d="M74.7967 80.5589C70.6656 80.5589 67.3444 77.2378 67.3444 73.2686C67.3444 69.2185 70.6656 65.8974 74.7967 65.8974C78.7659 65.8974 82.249 69.2185 82.249 73.2686C82.249 77.2378 78.7659 80.5589 74.7967 80.5589Z"/>
</mask>
<path d="M74.7967 80.5589C70.6656 80.5589 67.3444 77.2378 67.3444 73.2686C67.3444 69.2185 70.6656 65.8974 74.7967 65.8974C78.7659 65.8974 82.249 69.2185 82.249 73.2686C82.249 77.2378 78.7659 80.5589 74.7967 80.5589Z" fill="#0C56B7"/>
<path d="M74.7967 80.5589V79.9829C70.9754 79.9829 67.9204 76.9115 67.9204 73.2686H67.3444H66.7684C66.7684 77.5641 70.3557 81.1349 74.7967 81.1349V80.5589ZM67.3444 73.2686H67.9204C67.9204 69.5407 70.9796 66.4734 74.7967 66.4734V65.8974V65.3214C70.3516 65.3214 66.7684 68.8963 66.7684 73.2686H67.3444ZM74.7967 65.8974V66.4734C78.46 66.4734 81.673 69.5487 81.673 73.2686H82.249H82.825C82.825 68.8882 79.0717 65.3214 74.7967 65.3214V65.8974ZM82.249 73.2686H81.673C81.673 76.9035 78.4642 79.9829 74.7967 79.9829V80.5589V81.1349C79.0675 81.1349 82.825 77.5721 82.825 73.2686H82.249Z" fill="black" mask="url(#path-3-outside-2_50_71)"/>
</g>
<defs>
<clipPath id="clip0_50_71">
<rect width="96" height="96" fill="white"/>
</clipPath>
</defs>
</svg>
